<svg width="47" height="12" viewBox="0 0 47 12" fill="none" xmlns="http://www.w3.org/2000/svg">
<mask id="mask0_40_552" style="mask-type:alpha" maskUnits="userSpaceOnUse" x="0" y="0" width="47" height="12">
<path d="M9.35 0.166667H11.9833C12.1056 0.166667 12.2111 0.21111 12.3 0.3C12.3889 0.388889 12.4333 0.494443 12.4333 0.616665V11.3833C12.4333 11.5056 12.3889 11.6111 12.3 11.7C12.2111 11.7889 12.1056 11.8333 11.9833 11.8333H8.96667C8.84445 11.8333 8.73889 11.7889 8.65 11.7C8.56111 11.6111 8.51667 11.5056 8.51667 11.3833V6.81667L7.41667 8.61667C7.23889 8.89444 7.03333 9.03333 6.8 9.03333H5.63334C5.4 9.03333 5.19445 8.89444 5.01667 8.61667L3.91667 6.81667V11.3833C3.91667 11.5056 3.87222 11.6111 3.78333 11.7C3.69445 11.7889 3.58889 11.8333 3.46667 11.8333H0.45C0.327778 11.8333 0.222222 11.7889 0.133333 11.7C0.0444445 11.6111 0 11.5056 0 11.3833V0.616665C0 0.494443 0.0444445 0.388889 0.133333 0.3C0.222222 0.21111 0.327778 0.166667 0.45 0.166667H3.08333C3.39445 0.166667 3.63333 0.316665 3.8 0.616665L6.21667 4.61667L8.63334 0.616665C8.8 0.316665 9.03889 0.166667 9.35 0.166667Z" fill="#F8F9FC"/>
<path d="M14.8732 1.23333C15.8954 0.41111 17.2454 0 18.9232 0C20.601 0 21.9454 0.416665 22.9566 1.25C23.9788 2.07222 24.4899 3.23333 24.4899 4.73333V7.33333C24.4899 8.85555 23.9843 10.0167 22.9732 10.8167C21.9732 11.6056 20.6232 12 18.9232 12C17.2232 12 15.8677 11.6056 14.8566 10.8167C13.8566 10.0167 13.3566 8.85555 13.3566 7.33333V4.73333C13.3566 3.22222 13.8621 2.05555 14.8732 1.23333ZM18.0232 8.41667C18.2454 8.63889 18.5454 8.75 18.9232 8.75C19.301 8.75 19.601 8.63889 19.8232 8.41667C20.0454 8.19444 20.1566 7.85555 20.1566 7.4V4.6C20.1566 4.15555 20.0454 3.82222 19.8232 3.6C19.601 3.36667 19.301 3.25 18.9232 3.25C18.5454 3.25 18.2454 3.36667 18.0232 3.6C17.801 3.82222 17.6899 4.15555 17.6899 4.6V7.4C17.6899 7.85555 17.801 8.19444 18.0232 8.41667Z" fill="#F8F9FC"/>
<path d="M32.7104 0.166667H35.8104C35.9104 0.166667 36.523 0.166667 36.523 0.166667C36.5316 0.250895 36.2028 0.480193 36.1604 0.65L33.0271 11.2833C32.927 11.65 32.6771 11.8333 32.2771 11.8333H28.477C28.077 11.8333 27.827 11.65 27.727 11.2833L24.5937 0.65C24.5826 0.605555 24.577 0.55 24.577 0.483333C24.577 0.416666 24.6104 0.35 24.677 0.283333C24.7548 0.205555 24.8437 0.166667 24.9437 0.166667H28.0437C28.4437 0.166667 28.6937 0.349999 28.7937 0.716665L30.377 6.91667L31.9604 0.716665C32.0604 0.349999 32.3104 0.166667 32.7104 0.166667Z" fill="#F8F9FC"/>
<path d="M40.4398 8.58329H46.2676C46.3898 8.58329 46.4954 8.62773 46.5843 8.71662C46.6732 8.80551 46.7176 8.91106 46.7176 9.03329V11.3833C46.7176 11.5055 46.6732 11.6111 46.5843 11.7C46.4954 11.7888 46.3898 11.8333 46.2676 11.8333H34.575C34.4528 11.8333 34.3472 11.7888 34.2583 11.7C34.1695 11.6111 34.125 11.5055 34.125 11.3833L37.1343 0.616618C37.1343 0.494396 37.1787 0.38884 37.2676 0.299951C37.3565 0.211062 37.462 0.166618 37.5843 0.166618H46.1343C46.2565 0.166618 46.362 0.211062 46.4509 0.299951C46.5398 0.38884 46.5843 0.494396 46.5843 0.616618V2.96662C46.5843 3.08884 46.5398 3.1944 46.4509 3.28329C46.362 3.37217 46.2565 3.41662 46.1343 3.41662H41.5972L41.3658 4.46662H45.7676C45.8898 4.46662 45.9954 4.51106 46.0843 4.59995C46.1732 4.68884 46.2176 4.7944 46.2176 4.91662V7.08329C46.2176 7.20551 46.1732 7.31106 46.0843 7.39995C45.9954 7.48884 45.8898 7.53329 45.7676 7.53329H40.6713L40.4398 8.58329Z" fill="#F8F9FC"/>
</mask>
<g mask="url(#mask0_40_552)">
<rect width="13" height="12" fill="#29B96E"/>
<path d="M13 0H24.3684L26.5 12H13V0Z" fill="#40ACE4"/>
<path d="M24.6411 0H36.6411L33.1097 12H26.6468L24.6411 0Z" fill="#FA6815"/>
<path d="M37.1411 0H47.6411V12H33.6411L37.1411 0Z" fill="#8655E8"/>
</g>
</svg>
